<?xml version="1.0" encoding="UTF-8" standalone="no"?>
<svg
   xmlns:dc="http://purl.org/dc/elements/1.1/"
   xmlns:cc="http://creativecommons.org/ns#"
   xmlns:rdf="http://www.w3.org/1999/02/22-rdf-syntax-ns#"
   xmlns:svg="http://www.w3.org/2000/svg"
   xmlns="http://www.w3.org/2000/svg"
   xmlns:sodipodi="http://sodipodi.sourceforge.net/DTD/sodipodi-0.dtd"
   xmlns:inkscape="http://www.inkscape.org/namespaces/inkscape"
   height="44px"
   version="1.1"
   viewBox="0 0 44 44"
   width="44px"
   x="0px"
   y="0px"
   id="svg2"
   inkscape:version="0.92.1 r15371"
   sodipodi:docname="application.svg">
  <metadata
     id="metadata18">
    <rdf:RDF>
      <cc:Work
         rdf:about="">
        <dc:format>image/svg+xml</dc:format>
        <dc:type
           rdf:resource="http://purl.org/dc/dcmitype/StillImage" />
      </cc:Work>
    </rdf:RDF>
  </metadata>
  <defs
     id="defs16">
    <inkscape:perspective
       sodipodi:type="inkscape:persp3d"
       inkscape:vp_x="0 : 22 : 1"
       inkscape:vp_y="0 : 1000 : 0"
       inkscape:vp_z="44 : 22 : 1"
       inkscape:persp3d-origin="22 : 14.666667 : 1"
       id="perspective2836" />
  </defs>
  <sodipodi:namedview
     pagecolor="#ffffff"
     bordercolor="#666666"
     borderopacity="1"
     objecttolerance="10"
     gridtolerance="10"
     guidetolerance="10"
     inkscape:pageopacity="0"
     inkscape:pageshadow="2"
     inkscape:window-width="1876"
     inkscape:window-height="1051"
     id="namedview14"
     showgrid="false"
     inkscape:zoom="21.454545"
     inkscape:cx="19.978548"
     inkscape:cy="21.894358"
     inkscape:window-x="44"
     inkscape:window-y="0"
     inkscape:window-maximized="1"
     inkscape:current-layer="g3" />
  <g
     transform="matrix(0.18308778,0,0,0.18308778,6.6100946,3.2385199)"
     id="g3">
    <path
       d="m 125.98385,209.62421 c 1.80704,0.35673 3.57205,0.44314 5.27823,0.28237 4.0695,-0.31899 8.14202,-0.66198 12.21221,-0.99682 10.64051,-1.01691 18.72595,-11.48548 18.72595,-25.94533 L 163.20621,11.227425 147.97024,-0.76375721 126.00907,209.61316 Z"
       style="fill:#4d4d4d;stroke-width:0.91900057"
       id="path5"
       sodipodi:nodetypes="cccccccc"
       inkscape:connector-curvature="0" />
    <path
       d="m 0.01847,49.086936 c 0,-12.530331 7.15881,-24.128421 16.22971,-25.832538 L 147.97024,-0.76375721 V 183.48232 c 0,16.76058 -12.32239,28.26844 -26.68619,25.69221 L 16.293009,197.53084 C 3.7028041,196.31147 1.2049608,185.26097 0.03027384,174.26275 L 0,49.06689 Z"
       style="fill:#000000;stroke-width:0.96226758"
       id="path7"
       inkscape:connector-curvature="0"
       sodipodi:nodetypes="cccsccccc" />
    <path
       d="m 61.90024,42.966243 c -0.809,0 -1.672,0.055 -2.59,0.157 h 4.836 c -0.676,-0.106 -1.453,-0.157 -2.246,-0.157 z"
       style="fill:#006225"
       id="path19"
       inkscape:connector-curvature="0" />
  </g>
</svg>
